<svg width="48" height="49" viewBox="0 0 48 49" fill="none" xmlns="http://www.w3.org/2000/svg">
<path fill-rule="evenodd" clip-rule="evenodd" d="M42.9709 13.7263L46.3318 10.3654C48.1084 8.58885 48.1083 5.70849 46.3318 3.93193L42.9709 0.571035C42.2095 -0.190345 40.9751 -0.190345 40.2137 0.571035C39.4523 1.33242 39.4523 2.56686 40.2137 3.32824L43.5746 6.68914C43.8284 6.94294 43.8284 7.35442 43.5746 7.60821L40.2137 10.9691C39.4523 11.7305 39.4523 12.9649 40.2137 13.7263C40.9751 14.4877 42.2095 14.4877 42.9709 13.7263ZM46.7913 43.5419V39.2633C46.7913 37.1374 45.497 35.2257 43.5232 34.4361L38.2354 32.321C35.7248 31.3168 32.8636 32.4046 31.6544 34.8231L31.1942 35.7434C31.1942 35.7434 24.6954 34.4436 19.4964 29.2446C14.2974 24.0455 12.9976 17.5467 12.9976 17.5467L13.9179 17.0866C16.3364 15.8774 17.4242 13.0161 16.42 10.5056L14.3049 5.2178C13.5153 3.24395 11.6036 1.94964 9.47767 1.94964H5.19904C2.32769 1.94964 0 4.27733 0 7.14867C0 30.1195 18.6215 48.741 41.5923 48.741C44.4636 48.741 46.7913 46.4133 46.7913 43.5419ZM32.5728 13.7263C31.8114 14.4877 30.577 14.4877 29.8156 13.7263C29.0542 12.9649 29.0542 11.7305 29.8156 10.9691L31.6864 9.09831H25.9952C24.9184 9.09831 24.0455 8.22543 24.0455 7.14867C24.0455 6.07192 24.9184 5.19904 25.9952 5.19904H31.6864L29.8156 3.32824C29.0542 2.56686 29.0542 1.33242 29.8156 0.571035C30.577 -0.190345 31.8114 -0.190345 32.5728 0.571035L35.9337 3.93193C37.7103 5.70849 37.7103 8.58885 35.9337 10.3654L32.5728 13.7263Z" fill="black"/>
</svg>